<svg xmlns="http://www.w3.org/2000/svg" viewBox="0 0 24 24" aria-label="GitHub">
  <path fill="#181717" d="M12 .296C5.37.296 0 5.667 0 12.297c0 5.303 3.438 9.8 8.205 11.386.6.11.82-.258.82-.577 0-.285-.01-1.04-.015-2.042-3.338.726-4.042-1.61-4.042-1.61-.546-1.385-1.333-1.754-1.333-1.754-1.09-.745.082-.729.082-.729 1.205.085 1.84 1.237 1.84 1.237 1.07 1.835 2.807 1.305 3.492.998.108-.775.418-1.305.762-1.605-2.665-.303-5.466-1.333-5.466-5.93 0-1.31.468-2.381 1.236-3.221-.123-.303-.536-1.524.117-3.176 0 0 1.008-.322 3.301 1.23a11.513 11.513 0 0 1 6.002 0c2.291-1.552 3.297-1.23 3.297-1.23.655 1.652.242 2.873.119 3.176.77.84 1.233 1.911 1.233 3.221 0 4.609-2.805 5.624-5.478 5.921.43.37.814 1.102.814 2.222 0 1.604-.015 2.896-.015 3.289 0 .321.216.694.825.576C20.565 22.092 24 17.596 24 12.297 24 5.667 18.627.296 12 .296z"/>
</svg>
